<svg xmlns="http://www.w3.org/2000/svg" xmlns:xlink="http://www.w3.org/1999/xlink" width="32" height="160" viewBox="0 0 32 160"><svg height="32" viewBox="0 0 32 32" width="32" id="arrow" y="0"><title></title><path d="M30.29 19.29L27 22.59V12a11 11 0 0 0-22 0v18h2V12a9 9 0 0 1 18 0v10.59l-3.29-3.3-1.42 1.42 5 5a1 1 0 0 0 1.42 0l5-5z" data-name="1"></path></svg><svg height="32" viewBox="0 0 32 32" width="32" id="basket" y="32"><title></title><path d="M30 13h-8.31l-3.31-8.7-1.87.7 3 8h-7.1l3-8-1.78-.7-3.32 8.7H2v2h1.13L5 28.14A1 1 0 0 0 6 29h20a1 1 0 0 0 1-.86L28.87 15H30zm-4.87 14H6.87L5.15 15h21.7z" data-name="2"></path></svg><svg height="32" viewBox="0 0 32 32" width="32" id="battery" y="64"><title></title><path d="M27 25H3a1 1 0 0 1-1-1V8a1 1 0 0 1 1-1h24a1 1 0 0 1 1 1v4a2 2 0 0 1 2 2v4a2 2 0 0 1-2 2v4a1 1 0 0 1-1 1zM4 23h22v-4a1 1 0 0 1 1-1h1v-4h-1a1 1 0 0 1-1-1V9H4zm20-12h-2v10h2zm-4 0h-2v10h2zm-4 0h-2v10h2zm-4 0h-2v10h2zm-4 0H6v10h2z" data-name="2"></path></svg><svg height="32" viewBox="0 0 32 32" width="32" id="chart" y="96"><title></title><path d="M28 25V10a1 1 0 0 0-1-1h-4a1 1 0 0 0-1 1v15h-2V6a1 1 0 0 0-1-1h-4a1 1 0 0 0-1 1v19h-2V15a1 1 0 0 0-1-1H7a1 1 0 0 0-1 1v10H4V5H2v21a1 1 0 0 0 1 1h27v-2zm-4-14h2v14h-2zm-8-4h2v18h-2zm-8 9h2v9H8z" data-name="2"></path></svg><svg height="32" viewBox="0 0 32 32" width="32" id="login" y="128"><title></title><path d="M27 3v26a1 1 0 0 1-1 1H6a1 1 0 0 1-1-1v-2h2v1h18V4H7v3H5V3a1 1 0 0 1 1-1h20a1 1 0 0 1 1 1zM12.29 20.29l1.42 1.42 5-5a1 1 0 0 0 0-1.42l-5-5-1.42 1.42 3.3 3.29H5v2h10.59z" data-name="1"></path></svg></svg>